<?xml version="1.0" encoding="utf-8"?>
<!-- Generator: Adobe Illustrator 18.1.1, SVG Export Plug-In . SVG Version: 6.00 Build 0)  -->
<!DOCTYPE svg PUBLIC "-//W3C//DTD SVG 1.1//EN" "http://www.w3.org/Graphics/SVG/1.1/DTD/svg11.dtd">
<svg version="1.1" id="Layer_1" xmlns="http://www.w3.org/2000/svg" xmlns:xlink="http://www.w3.org/1999/xlink" x="0px" y="0px"
	 viewBox="0 0 324 252" enable-background="new 0 0 324 252" xml:space="preserve">
<g>
	<path fill="#FFFFFF" d="M195.3,134.9c-0.1,1.3,0.1,2.4,0.2,3.1c0.3,1.1,0.8,1.6,1.6,1.4c0.7-0.2,1.6-0.8,2.7-2.1
		c6.5-6.9,10.2-16.2,14.3-25.3h0l3-13.5l-12.5,3.2C200.5,113.3,196.6,124.9,195.3,134.9z"/>
	<path fill="#FFFFFF" d="M162,14.3c-61.7,0-111.7,50-111.7,111.7s50,111.7,111.7,111.7s111.7-50,111.7-111.7S223.7,14.3,162,14.3z
		 M139.2,189.6c-7.4,1.9-12-4.4-13.7-11.2c-4.8-18.8,2.2-55.2,3.7-70c-5.7,17.6-13.3,46.2-14.4,49.8c-0.3,1-0.9,1.5-1.7,1.7
		c-3.5,0.9-10.6-5.3-11.3-8.2l1.2-29.7c-6.7,20.8-12.2,44.6-13.6,54.1c-0.3,1.9-1.1,2.4-1.9,2.6c-2.5,0.7-10.2-1.7-11-4.7
		c7.6-35.3,17.8-77.8,17.8-82.7c0-3,3.1-4.7,5.4-5.3c5-1.2,13.2,0.4,14.5,5.7c0.2,0.8,0.2,1.8,0.1,2.9l-1.4,34
		c4.7-9.8,18.2-49.3,18.9-51.6c0.4-1.5,1.2-2.1,2.2-2.4c7.3-1.9,14.9,3.7,15.7,6.8c0.4,1.5,0.1,1.3-0.8,5.4
		c-6.3,28.2-9,45.5-10.5,60.6c-0.8,8.3-0.8,16.5,1.1,23.6c1.2,4.7,3.3,8.3,6.4,9.6c0.5,0.2,0.8,0.6,0.9,1.1
		C147.4,184,143.9,188.3,139.2,189.6z M238,120c-2.2,5.5-7.1,15-10.4,19.4c-0.7,0.8-1.5,1.4-2.5,1.7c-4.4,1.1-11.5-2.7-12.7-7.5
		c-0.4-1.5-0.5-3.4-0.4-5.6c-2.4,5.6-6.8,14-9.8,18c-0.7,0.8-1.5,1.4-2.5,1.7c-4.4,1.1-11.5-2.7-12.7-7.5c-0.4-1.4-0.5-3.3-0.4-5.6
		c-3.7,9.4-7.7,18.9-11.4,19.9c-3.3,0.8-7.2-1.1-9.3-8.4c-3.3,6.9-7.8,12-10.7,12.8c-4.7,1.2-9.8-0.7-11-5.6
		c-4-15.9,4-49.7,22.5-54.4c6.2-1.5,9.2,2,10.2,5.7c0.9,3.5,0.1,7.2-1.8,7.7c-0.3,0.1-0.8,0.1-1.2,0.1c-2-0.1-3.7,0.1-5.3,0.5
		c-15.4,4-18.9,29.5-17,36.9c0.4,1.4,0.9,2.1,1.6,2c6.3-1.6,12.4-25.4,11.8-35.7c1.1-0.6,2.2-1,3.4-1.3c4.6-1.2,8.9,0.1,9.5,2.3
		c0.1,0.4-0.1,1.1-0.4,2c-4.8,10.4-5.9,20.2-4.9,24.3c0.4,1.5,1.1,2.3,2,2.1c0.8-0.2,1.5-0.9,2.4-2.5c0.8-1.2,3.6-7.1,6.6-13.1
		c1.1-2.1,3.2-6.7,5.4-11.3c0.9-4.4,1.9-9,3-13.6c-7.1-0.5-8.9-3.8-9.7-7.2c-0.3-1.2,0.2-1.8,1.1-2c1.9-0.5,6.7-1.1,11.5-2.1
		c2.5-10,4.3-16.9,4.7-20.5c0.4-2.7,2.5-3.8,4.3-4.3c3.2-0.8,9.4,1.8,10.3,5.4c0.2,0.9,0.2,2-0.1,2.7c-1.4,4.2-3,8.5-4.7,12.9
		c2.2-0.6,6.7-2.2,11.1-3.4c2.3-8.7,4.2-16.2,4.6-19.9c0.3-2.8,2.5-3.9,4.3-4.4h0c3.2-0.8,9.4,1.8,10.3,5.4c0.2,0.9,0.2,2-0.1,2.7
		c-1.5,4.6-3.4,9.3-5.1,14.2c2.8,1.2,6.5,2,7,4c0.3,1.2-0.2,1.7-1.1,2l-9.5,3.7c-4.3,11.8-8.3,23.9-9.8,34.3
		c-0.1,1.3,0.1,2.4,0.2,3.1c0.3,1.1,0.8,1.6,1.6,1.4c0.7-0.2,1.6-0.8,2.7-2.1c1.4-1.5,5.9-7,9-14.1c2.2-4.3,9.3-19.7,10.5-22.8
		c0.2-0.5,0.4-0.8,0.7-0.8c0.9-0.2,2.1,1.6,2.1,1.6C246,99.8,241.9,110.4,238,120z"/>
</g>
</svg>
