<svg xmlns="http://www.w3.org/2000/svg" xmlns:xlink="http://www.w3.org/1999/xlink" version="1.1" x="0px" y="0px" viewBox="0 0 64 64" enable-background="new 0 0 64 64" xml:space="preserve"><g><path fill="#000000" d="M62.2,19.3L44.7,1.8c-1.4-1.4-3.6-1.4-4.9,0l-5.6,5.6c-0.7,0.7-1,1.5-1,2.5c0,0.8,0.3,1.7,0.9,2.3l-5.7,5.7   c-1.5-0.3-3.1-0.5-4.7-0.5c-6.2,0-11.9,2.4-16.3,6.8C6,25.4,6,27.6,7.3,29l11.4,11.4L1.8,57.3c-1.4,1.4-1.4,3.6,0,4.9   c0.7,0.7,1.6,1,2.5,1s1.8-0.3,2.5-1l16.9-16.9L35,56.7c0.7,0.7,1.6,1,2.5,1c0.9,0,1.8-0.3,2.5-1c5.5-5.5,7.8-13.4,6.3-21l5.7-5.7   c1.4,1.2,3.5,1.1,4.8-0.2l5.6-5.6c0.7-0.7,1-1.5,1-2.5C63.3,20.9,62.9,20,62.2,19.3z"></path></g></svg>